<svg xmlns="http://www.w3.org/2000/svg" width="343.00000158945704" height="342" version="1.1" style=""><rect id="backgroundrect" width="100%" height="100%" x="0" y="0" fill="none" stroke="none" style="" class="selected"/>
 
<g class="currentLayer" style=""><title>Layer 1</title><rect fill="#87ceeb" stroke-dashoffset="" fill-rule="nonzero" id="svg_11" x="-2.0216347706991655e-7" y="-1.2202910681935464e-7" width="342.1458763974106" height="341.50000048559764" style="color: rgb(135, 206, 235);" class=""/><polyline fill="#87ceeb" stroke="#87ceeb" stroke-dashoffset="" fill-rule="nonzero" marker-start="" marker-mid="" marker-end="" id="svg_5" points="382.62083435058594,5.012989044189453 382.62083435058594,5.012989044189453 " style="color: rgb(135, 206, 235);" class=""/>
  
  
  
 <path d="m190.66361042976382,1.47006862302419 c-93.44328986787795,-10.729345141649246 -177.89342876434324,56.324384215831756 -188.61784992933272,149.76767408370972 c-10.729345141649246,93.44328986787795 56.324384215831756,177.89342876434324 149.76767408370972,188.61784992933272 s177.89342876434324,-56.324384215831756 188.61784992933272,-149.76767408370972 c10.729345141649246,-93.44328986787795 -56.324384215831756,-177.89342876434324 -149.76767408370972,-188.61784992933272 zm-1.747617796087265,15.220011855363845 c85.0380617096424,9.764245716333388 146.05499568223954,86.61570383143425 136.2956739425659,171.64982635974886 c-9.764245716333388,85.0380617096424 -86.61570383143425,146.05499568223954 -171.64982635974886,136.2956739425659 c-85.0380617096424,-9.764245716333388 -146.05499568223954,-86.61570383143425 -136.2956739425659,-171.64982635974886 c9.764245716333388,-85.0380617096424 86.61570383143425,-146.05499568223954 171.64982635974886,-136.2956739425659 z" fill="#55555f" fill-opacity=".94118" id="svg_3" opacity="1" class=""/><path d="m279.8618328022957,73.33905180593138 a2.424566107273102,2.424566107273102 0 0 0 -1.749587386751175,0.7089640074276926 a2.424566107273102,2.424566107273102 0 0 0 -0.44569867133617536,2.808931725335121 l-4.376135016608238,4.376135016608238 c-7.370405223417283,2.3934465747833253 -43.365462442636485,14.529670327663421 -60.29113981294632,28.640802639245987 c-17.87600486564636,14.902907758474349 -41.77403318619728,43.92088700985908 -60.30000297093392,58.214206457853315 l-24.175740604162215,7.118691536569595 c5.495650349974632,-9.542075889444352 8.120031430101395,-19.878093775510788 8.120031430101395,-19.878093775510788 s-12.690072647571563,3.095014769268036 -22.885658719301226,9.848938114881514 c-8.980348632097243,5.9488531617403035 -28.320744156360625,24.915321898460387 -33.025111457109446,29.56946463727951 l-1.4718751031398778,-1.4718751031398778 l-3.8101731393337253,3.8101731393337253 l2.6513644722223284,2.6513644722223284 c-0.6068505794572836,0.9762473084735876 -6.920747674846649,11.142959181070328 -9.867649226188659,16.81636508846283 c-2.232727976608276,4.298828583049774 -4.295283319854737,11.480743979930876 -4.295283319854737,11.480743979930876 s7.181521478748321,-2.06255534324646 11.480743979930876,-4.295283319854737 c5.673504386925697,-2.9468030718088154 15.84043291449547,-9.260719863104821 16.81636508846283,-9.867649226188659 l2.6513644722223284,2.6513644722223284 l3.8101731393337253,-3.8101731393337253 l-1.480147383928299,-1.480147383928299 c0.9262197056102753,-0.9413363139557842 1.5099866824865342,-1.5242662147998811 3.6319251842498783,-3.7169130213975907 l12.30797205877304,2.3363284455299382 c16.69917444396019,3.170450091695786 4.967701572513581,20.894402558088302 8.327330847477914,24.254524230718616 c3.359530795431137,3.359530795431137 21.085452852487567,-8.371646637415886 24.256493821382524,8.327330847477914 l2.334161895799637,12.289260947465896 c-2.1935331223964694,2.130703180217743 -2.7779106723785407,2.7175427185297014 -3.7189810915946957,3.6464016756296163 l-1.4283471494674684,-1.4283471494674684 l-3.8122412095308307,3.8122412095308307 l2.6513644722223284,2.6513644722223284 c-0.6077171993494037,0.9776260219383235 -6.91897504324913,11.142959181070328 -9.865679635524751,16.81636508846283 c-2.232727976608276,4.298828583049774 -4.295283319854737,11.478774389266968 -4.295283319854737,11.478774389266968 s7.1794534085512165,-2.06255534324646 11.478774389266968,-4.295283319854737 c5.673208948326111,-2.946606112742424 15.84043291449547,-9.25786395664215 16.81833467912674,-9.865679635524751 l2.6492964020252225,2.6492964020252225 l3.8101731393337253,-3.8101731393337253 l-1.5216072674036027,-1.5216072674036027 c4.6464613352298745,-4.715101569867135 23.576000247001648,-24.092033000946042 29.505452940702437,-33.09109274435043 c6.731371532511711,-10.218236364364623 9.914919402122496,-22.817707841396334 9.914919402122496,-22.817707841396334 s-10.329518236875534,2.5306285645246507 -19.83870196223259,7.985212949156761 l7.079398202824592,-24.040823643684387 c14.293319447994232,-18.525969784736635 43.311298699378966,-42.4230133099556 58.214206457853315,-60.30000297093392 c14.111132311582566,-16.92567737030983 26.247749982595444,-52.920931548595426 28.640802639245987,-60.29113981294632 l4.376135016608238,-4.376135016608238 a2.424566107273102,2.424566107273102 0 0 0 2.808931725335121,-0.4456888233828578 a2.424566107273102,2.424566107273102 0 0 0 0,-3.4287619072675706 a2.424566107273102,2.424566107273102 0 0 0 -1.6791745205163968,-0.7089640074276926 zm-55.022484786987306,45.81366363787651 a11.76928901219368,11.76928901219368 0 0 1 8.15115096259117,3.4474730185747147 a11.76928901219368,11.76928901219368 0 0 1 0,16.64402590537071 a11.76928901219368,11.76928901219368 0 0 1 -16.645995496034622,0 a11.76928901219368,11.76928901219368 0 0 1 0,-16.64402590537071 a11.76928901219368,11.76928901219368 0 0 1 8.495238451576233,-3.4474730185747147 zm-144.19373250484466,83.12558917498589 l9.050761498332024,9.050761498332024 c-1.3846222367286682,0.7892149790287015 -6.131828134417534,3.487061790919304 -9.535871678853034,5.255064850378036 c-2.8536414334058837,1.4821169745922087 -8.524191434335707,3.754236764478683 -8.524191434335707,3.754236764478683 s2.27418786008358,-5.670648480463028 3.756304834675789,-8.524289913868905 c1.7680030594587328,-3.404043544435501 4.464077239751816,-8.151249442124367 5.252996780180931,-9.535871678853034 zm63.66603341555596,63.66898780155182 l9.048693428134918,9.046625357937812 c-1.3858039911270148,0.7898649439477915 -6.1304494209527975,3.4873572295188904 -9.53380360865593,5.255064850378036 c-2.8536414334058837,1.4821169745922087 -8.524191434335707,3.754236764478683 -8.524289913868905,3.754236764478683 c0,0 2.2721197898864745,-5.668481930732727 3.754236764478683,-8.522123364138604 c1.7674121822595599,-3.4028617900371554 4.464569637417793,-8.14681786313057 5.255064850378036,-9.53380360865593 z" fill="#55555f" fill-opacity=".94118" fill-rule="evenodd" id="svg_4" opacity="1" class=""/></g></svg>